<svg viewBox="0 0 32 32" version="1.1" xmlns="http://www.w3.org/2000/svg" xmlns:xlink="http://www.w3.org/1999/xlink" xml:space="preserve" xmlns:serif="http://www.serif.com/" style="fill-rule:evenodd;clip-rule:evenodd;stroke-linejoin:round;stroke-miterlimit:2;">
    <g id="g3773" transform="matrix(0.27059,0,0,0.27059,2.98327,0)">
        <path fill="currentColor" id="path3775" d="M86.068,0C61.466,0 56.851,35.041 70.691,35.041C84.529,35.041 110.671,0 86.068,0Z" style="fill-rule:nonzero;"/>
        <path fill="currentColor" id="path3777" d="M45.217,30.699C52.586,31.149 60.671,2.577 46.821,4.374C32.976,6.171 37.845,30.249 45.217,30.699Z" style="fill-rule:nonzero;"/>
        <path fill="currentColor" id="path3779" d="M11.445,48.453C16.686,46.146 12.12,23.581 3.208,29.735C-5.7,35.89 6.204,50.759 11.445,48.453Z" style="fill-rule:nonzero;"/>
        <path fill="currentColor" id="path3781" d="M26.212,36.642C32.451,35.37 32.793,9.778 21.667,14.369C10.539,18.961 19.978,37.916 26.212,36.642Z" style="fill-rule:nonzero;"/>
        <path fill="currentColor" id="path3783" d="M58.791,93.913C59.898,102.367 52.589,106.542 45.431,101.092C22.644,83.743 83.16,75.088 79.171,51.386C75.86,31.712 15.495,37.769 8.621,68.553C3.968,89.374 27.774,118.26 52.614,118.26C64.834,118.26 78.929,107.226 81.566,93.248C83.58,82.589 57.867,86.86 58.791,93.913Z" style="fill-rule:nonzero;"/>
    </g>
</svg>
