<?xml version="1.0" encoding="UTF-8" standalone="no"?>
<!DOCTYPE svg PUBLIC "-//W3C//DTD SVG 1.1//EN" "http://www.w3.org/Graphics/SVG/1.1/DTD/svg11.dtd">
<svg width="100%" height="100%" viewBox="0 0 16 16" version="1.1" xmlns="http://www.w3.org/2000/svg" xmlns:xlink="http://www.w3.org/1999/xlink" xml:space="preserve" xmlns:serif="http://www.serif.com/" style="fill-rule:evenodd;clip-rule:evenodd;stroke-linejoin:round;stroke-miterlimit:2;">
    <g transform="matrix(1,0,0,1,-586,0)">
        <rect id="paletti-symbolic" x="586" y="0" width="16" height="16" style="fill:none;"/>
        <clipPath id="_clip1">
            <rect id="paletti-symbolic1" serif:id="paletti-symbolic" x="586" y="0" width="16" height="16"/>
        </clipPath>
        <g clip-path="url(#_clip1)">
            <g transform="matrix(2.28571,0,0,2.33333,-762.571,-10.6667)">
                <path d="M597,5.857C597,5.384 596.608,5 596.125,5L590.875,5C590.392,5 590,5.384 590,5.857L590,10.143C590,10.616 590.392,11 590.875,11L596.125,11C596.608,11 597,10.616 597,10.143L597,5.857Z" style="fill:rgb(46,52,54);"/>
            </g>
            <path d="M590,10L588,10L588,12C588,12.552 588.448,13 589,13L590,13L590,10Z" style="fill:rgb(102,102,102);"/>
            <g transform="matrix(1,0,0,1,2,-2.66454e-15)">
                <rect x="588" y="10" width="2" height="3" style="fill:rgb(128,128,128);"/>
            </g>
            <g transform="matrix(1,0,0,1,4,-2.66454e-15)">
                <rect x="588" y="10" width="2" height="3" style="fill:rgb(154,154,154);"/>
            </g>
            <g transform="matrix(1,0,0,1,6,-2.66454e-15)">
                <rect x="588" y="10" width="2" height="3" style="fill:rgb(180,180,180);"/>
            </g>
            <g transform="matrix(1,0,0,1,8,-2.66454e-15)">
                <rect x="588" y="10" width="2" height="3" style="fill:rgb(205,205,205);"/>
            </g>
            <g transform="matrix(1,0,0,1,10,-2.66454e-15)">
                <path d="M590,10L588,10L588,13L589,13C589.552,13 590,12.552 590,12L590,10Z" style="fill:rgb(230,230,230);"/>
            </g>
        </g>
    </g>
</svg>
