<?xml version="1.0" encoding="UTF-8" standalone="no"?>
<svg
   xmlns:dc="http://purl.org/dc/elements/1.1/"
   xmlns:cc="http://creativecommons.org/ns#"
   xmlns:rdf="http://www.w3.org/1999/02/22-rdf-syntax-ns#"
   xmlns:svg="http://www.w3.org/2000/svg"
   xmlns="http://www.w3.org/2000/svg"
   xmlns:xlink="http://www.w3.org/1999/xlink"
   xmlns:sodipodi="http://sodipodi.sourceforge.net/DTD/sodipodi-0.dtd"
   xmlns:inkscape="http://www.inkscape.org/namespaces/inkscape"
   width="120"
   height="120"
   viewBox="0 0 120 120"
   fill="none"
   stroke="currentColor"
   stroke-width="2"
   stroke-linecap="round"
   stroke-linejoin="round"
   class="feather feather-download"
   version="1.1"
   id="svg8"
   sodipodi:docname="dropzone.svg"
   inkscape:version="1.0 (4035a4fb49, 2020-05-01)">
  <metadata
     id="metadata14">
    <rdf:RDF>
      <cc:Work
         rdf:about="">
        <dc:format>image/svg+xml</dc:format>
        <dc:type
           rdf:resource="http://purl.org/dc/dcmitype/StillImage" />
        <dc:title></dc:title>
      </cc:Work>
    </rdf:RDF>
  </metadata>
  <defs
     id="defs12">
    <linearGradient
       inkscape:collect="always"
       id="linearGradient885">
      <stop
         style="stop-color:#6848c6;stop-opacity:1"
         offset="0"
         id="stop881" />
      <stop
         style="stop-color:#4572f0;stop-opacity:1"
         offset="1"
         id="stop883" />
    </linearGradient>
    <linearGradient
       gradientTransform="matrix(5.7999999,0,0,5.7999999,-9.5999998,-9.5999999)"
       inkscape:collect="always"
       xlink:href="#linearGradient885"
       id="linearGradient887"
       x1="11.94818"
       y1="22.109579"
       x2="12"
       y2="2"
       gradientUnits="userSpaceOnUse" />
  </defs>
  <sodipodi:namedview
     scale-x="5"
     inkscape:document-rotation="0"
     pagecolor="#ffffff"
     bordercolor="#666666"
     borderopacity="1"
     objecttolerance="10"
     gridtolerance="10"
     guidetolerance="10"
     inkscape:pageopacity="0"
     inkscape:pageshadow="2"
     inkscape:window-width="1322"
     inkscape:window-height="919"
     id="namedview10"
     showgrid="false"
     inkscape:zoom="3.6070194"
     inkscape:cx="93.250125"
     inkscape:cy="58.446025"
     inkscape:window-x="0"
     inkscape:window-y="27"
     inkscape:window-maximized="0"
     inkscape:current-layer="svg8" />
  <path
     id="path878"
     style="color:#000000;font-style:normal;font-variant:normal;font-weight:normal;font-stretch:normal;font-size:medium;line-height:normal;font-family:sans-serif;font-variant-ligatures:normal;font-variant-position:normal;font-variant-caps:normal;font-variant-numeric:normal;font-variant-alternates:normal;font-variant-east-asian:normal;font-feature-settings:normal;font-variation-settings:normal;text-indent:0;text-align:start;text-decoration:none;text-decoration-line:none;text-decoration-style:solid;text-decoration-color:#000000;letter-spacing:normal;word-spacing:normal;text-transform:none;writing-mode:lr-tb;direction:ltr;text-orientation:mixed;dominant-baseline:auto;baseline-shift:baseline;text-anchor:start;white-space:normal;shape-padding:0;shape-margin:0;inline-size:0;clip-rule:nonzero;display:inline;overflow:visible;visibility:visible;opacity:1;isolation:auto;mix-blend-mode:normal;color-interpolation:sRGB;color-interpolation-filters:linearRGB;solid-color:#000000;solid-opacity:1;vector-effect:none;fill:url(#linearGradient887);fill-opacity:1;fill-rule:nonzero;stroke:none;stroke-width:11.6;stroke-linecap:butt;stroke-linejoin:miter;stroke-miterlimit:4;stroke-dasharray:none;stroke-dashoffset:0;stroke-opacity:1;color-rendering:auto;image-rendering:auto;shape-rendering:auto;text-rendering:auto;enable-background:accumulate;stop-color:#000000;stop-opacity:1"
     d="m 59.999999,2 a 5.7999999,5.7999999 0 0 0 -5.8,5.7999999 V 63.398439 L 35.10078,44.29922 a 5.7999999,5.7999999 0 0 0 -3.930858,-1.699221 5.7999999,5.7999999 0 0 0 -4.270703,1.699221 5.7999999,5.7999999 0 0 0 0,8.201559 l 29.000001,29 a 5.8005799,5.8005799 0 0 0 0.05684,0.05684 5.7999999,5.7999999 0 0 0 1.042191,0.79297 5.8005799,5.8005799 0 0 0 0.158572,0.101964 5.7999999,5.7999999 0 0 0 0.747655,0.351189 5.8005799,5.8005799 0 0 0 0.06798,0.02262 5.7999999,5.7999999 0 0 0 0.37381,0.135952 5.8005799,5.8005799 0 0 0 0.203929,0.04524 5.7999999,5.7999999 0 0 0 0.237915,0.05684 5.8005799,5.8005799 0 0 0 0.215238,0.04524 5.7999999,5.7999999 0 0 0 0.249226,0.04524 5.8005799,5.8005799 0 0 0 0.419109,0.03422 5.7999999,5.7999999 0 0 0 0.32832,0.0109 5.8005799,5.8005799 0 0 0 0.16994,-0.0116 5.7999999,5.7999999 0 0 0 0.215239,-0.0116 5.8005799,5.8005799 0 0 0 0.101963,0 5.7999999,5.7999999 0 0 0 1.268751,-0.249226 5.8005799,5.8005799 0 0 0 0.158572,-0.05684 5.7999999,5.7999999 0 0 0 0.04524,-0.0116 5.8005799,5.8005799 0 0 0 0.407798,-0.16994 5.7999999,5.7999999 0 0 0 0.294524,-0.135952 5.8005799,5.8005799 0 0 0 0.147262,-0.07929 5.7999999,5.7999999 0 0 0 0.271846,-0.158572 5.8005799,5.8005799 0 0 0 0.135952,-0.09066 5.7999999,5.7999999 0 0 0 0.271847,-0.19256 5.8005799,5.8005799 0 0 0 0.124641,-0.101965 5.7999999,5.7999999 0 0 0 0.249226,-0.203927 5.8005799,5.8005799 0 0 0 0.124585,-0.113273 5.7999999,5.7999999 0 0 0 0.339821,-0.351191 l 28.773427,-28.7621 a 5.7999999,5.7999999 0 0 0 0,-8.20156 5.7999999,5.7999999 0 0 0 -8.201559,0 l -19.099081,19.1003 V 7.7999999 A 5.7999999,5.7999999 0 0 0 59.999999,2 Z M 7.7999999,71.599999 A 5.7999999,5.7999999 0 0 0 2,77.399999 V 100.6 c 0,9.54105 7.8589442,17.4 17.4,17.4 h 81.2 c 9.54105,0 17.4,-7.85895 17.4,-17.4 V 77.399999 a 5.7999999,5.7999999 0 0 0 -5.8,-5.8 5.7999999,5.7999999 0 0 0 -5.8,5.8 V 100.6 c 0,3.27195 -2.52805,5.8 -5.8,5.8 H 19.4 c -3.271951,0 -5.8,-2.52805 -5.8,-5.8 V 77.399999 a 5.7999999,5.7999999 0 0 0 -5.8000001,-5.8 z" />
</svg>

