<?xml version="1.0" encoding="UTF-8" standalone="no"?>
<!DOCTYPE svg PUBLIC "-//W3C//DTD SVG 1.1//EN" "http://www.w3.org/Graphics/SVG/1.1/DTD/svg11.dtd">
<svg width="100%" height="100%" viewBox="0 0 16 16" version="1.1" xmlns="http://www.w3.org/2000/svg" xmlns:xlink="http://www.w3.org/1999/xlink" xml:space="preserve" xmlns:serif="http://www.serif.com/" style="fill-rule:evenodd;clip-rule:evenodd;stroke-linejoin:round;stroke-miterlimit:2;">
    <g transform="matrix(1,0,0,1,-586,0)">
        <g transform="matrix(2.28571,0,0,2.33333,-762.571,-10.6667)">
            <path d="M597,5.857C597,5.384 596.608,5 596.125,5L590.875,5C590.392,5 590,5.384 590,5.857L590,10.143C590,10.616 590.392,11 590.875,11L596.125,11C596.608,11 597,10.616 597,10.143L597,5.857Z" style="fill:rgb(46,52,54);"/>
        </g>
        <g transform="matrix(1,0,0,1,586,0)">
            <path d="M8.961,2.943C9.14,2.257 9.528,1.607 10.351,1.609C11.712,1.613 11.818,3.405 11.78,4.346C12.838,5.334 13.498,6.731 13.498,8.279C13.498,10.141 12.542,11.785 11.088,12.76L10.734,14.255C10.717,14.327 10.658,14.38 10.586,14.39C10.42,14.413 10.12,14.454 9.929,14.48C9.833,14.493 9.744,14.426 9.73,14.33C9.685,14.051 9.587,13.777 9.436,13.509C8.978,13.631 8.495,13.697 7.998,13.697C7.507,13.697 7.031,13.633 6.579,13.514C6.429,13.781 6.332,14.053 6.287,14.33C6.273,14.426 6.185,14.493 6.088,14.48C5.897,14.454 5.598,14.413 5.432,14.39C5.359,14.38 5.3,14.327 5.284,14.255L4.934,12.778C3.465,11.805 2.498,10.152 2.498,8.279C2.498,6.726 3.162,5.324 4.226,4.336C4.189,3.394 4.299,1.613 5.655,1.609C6.478,1.607 6.866,2.256 7.045,2.942C7.354,2.888 7.673,2.86 7.998,2.86C8.326,2.86 8.648,2.889 8.961,2.943ZM8,5.477C9.593,5.477 10.886,6.77 10.886,8.363C10.886,9.956 9.593,11.249 8,11.249C6.407,11.249 5.114,9.956 5.114,8.363C5.114,6.77 6.407,5.477 8,5.477ZM5.705,3.907C5.981,3.907 6.205,4.132 6.205,4.407C6.205,4.683 5.981,4.907 5.705,4.907C5.429,4.907 5.205,4.683 5.205,4.407C5.205,4.132 5.429,3.907 5.705,3.907ZM10.301,3.907C10.577,3.907 10.801,4.132 10.801,4.407C10.801,4.683 10.577,4.907 10.301,4.907C10.025,4.907 9.801,4.683 9.801,4.407C9.801,4.132 10.025,3.907 10.301,3.907Z" style="fill:white;"/>
        </g>
    </g>
</svg>
